<svg height='300px' width='300px' fill="#000000" xmlns="http://www.w3.org/2000/svg"
     xmlns:xlink="http://www.w3.org/1999/xlink" version="1.1" x="0px" y="0px" viewBox="0 0 100 100"
     enable-background="new 0 0 100 100" xml:space="preserve">
    <g>
        <g>
            <path d="M57.148,22.971c-0.313,1.93-0.482,3.925-0.51,5.985l-1.717,6.533l-0.392,0.392h-0.825l-0.43-0.352    c-0.131-3.338-0.273-5.294-0.43-5.868c-0.314-1.043-1.148-1.656-2.504-1.839c-0.521-0.079-2.975-0.118-7.355-0.118h-5.242    c-0.053,0.913-0.078,4.539-0.078,10.876v22.222c0,6.207,0.17,10.25,0.509,12.126c0.13,0.757,0.573,1.239,1.329,1.448    c0.393,0.105,1.918,0.235,4.578,0.392l0.391,0.391v2.621l-0.391,0.391c-2.582-0.156-6.599-0.234-12.049-0.234    c-5.582,0-9.599,0.078-12.051,0.234l-0.352-0.352v-2.66l0.392-0.391c2.66-0.156,4.186-0.287,4.577-0.392    c0.756-0.208,1.2-0.691,1.33-1.448c0.339-1.877,0.508-5.92,0.508-12.126V38.581c0-6.442-0.039-10.067-0.117-10.876h-5.594    c-4.668,0-7.395,0.144-8.176,0.431c-0.418,0.157-0.705,0.352-0.861,0.587c-0.235,0.417-0.431,1.251-0.588,2.503    c-0.182,1.383-0.299,2.804-0.352,4.264l-0.391,0.392H9.566l-0.43-0.392l-1.75-6.689c-0.027-1.878-0.184-3.821-0.471-5.83    l0.353-0.391c1.54,0.261,7.146,0.391,16.821,0.391h15.845c8.921,0,14.527-0.13,16.823-0.391L57.148,22.971z"></path>
        </g>
        <g>
            <path d="M92.645,42.602c-0.201,1.244-0.311,2.529-0.328,3.857l-1.107,4.21l-0.251,0.252h-0.532l-0.277-0.227    c-0.083-2.151-0.176-3.412-0.277-3.781c-0.201-0.673-0.738-1.067-1.613-1.185c-0.335-0.051-1.916-0.076-4.738-0.076h-3.379    c-0.033,0.588-0.051,2.924-0.051,7.008v14.318c0,4,0.11,6.604,0.328,7.814c0.084,0.487,0.37,0.798,0.857,0.933    c0.252,0.067,1.235,0.151,2.949,0.252l0.252,0.252v1.689l-0.252,0.252c-1.664-0.101-4.252-0.151-7.764-0.151    c-3.596,0-6.185,0.05-7.764,0.151l-0.229-0.227V76.23l0.254-0.252c1.713-0.101,2.696-0.185,2.948-0.252    c0.487-0.134,0.774-0.445,0.857-0.933c0.218-1.21,0.327-3.815,0.327-7.814V52.661c0-4.151-0.024-6.487-0.075-7.008h-3.604    c-3.008,0-4.765,0.092-5.27,0.277c-0.268,0.101-0.453,0.227-0.555,0.378c-0.15,0.269-0.276,0.807-0.378,1.613    c-0.117,0.892-0.192,1.808-0.227,2.748l-0.251,0.252h-0.512l-0.277-0.252l-1.127-4.311c-0.018-1.21-0.118-2.462-0.303-3.756    l0.227-0.252c0.992,0.168,4.605,0.252,10.84,0.252h10.209c5.748,0,9.361-0.084,10.84-0.252L92.645,42.602z"></path>
        </g>
    </g>
</svg>